<?xml version="1.0" encoding="UTF-8"?>
<svg id="Layer_2" data-name="Layer 2" xmlns="http://www.w3.org/2000/svg" viewBox="0 0 85.47 85.39">
  <defs>
    <style>
      .cls-1 {
        fill: #060607;
        stroke-width: 0px;
      }
    </style>
  </defs>
  <g id="Layer_1-2" data-name="Layer 1">
    <g>
      <path class="cls-1" d="M50.05,33.89h17.72C67.77,15.2,52.57,0,33.89,0v17.72c8.91,0,16.16,7.25,16.16,16.16Z"/>
      <path class="cls-1" d="M33.89,35.35v-17.72C15.2,17.62,0,32.82,0,51.51h17.72c0-8.91,7.25-16.16,16.16-16.16Z"/>
      <path class="cls-1" d="M35.43,51.51h-17.72c0,18.68,15.2,33.89,33.89,33.89v-17.72c-8.91,0-16.16-7.25-16.16-16.16Z"/>
      <path class="cls-1" d="M51.58,67.77c18.68,0,33.88-15.2,33.88-33.89h-17.72c0,8.91-7.25,16.16-16.16,16.16v17.72Z"/>
    </g>
  </g>
</svg>